<svg width="9" height="14" viewBox="0 0 9 14" fill="none" xmlns="http://www.w3.org/2000/svg">
<path fill-rule="evenodd" clip-rule="evenodd" d="M8.28005 0.220011C8.13942 0.0795608 7.9488 0.000671394 7.75005 0.000671397C7.5513 0.0006714 7.36068 0.0795608 7.22005 0.220011L0.970051 6.47001C0.8296 6.61064 0.750712 6.80126 0.750712 7.00001C0.750712 7.19876 0.8296 7.38939 0.970051 7.53001L7.22005 13.78C7.36223 13.9125 7.55027 13.9846 7.74457 13.9812C7.93887 13.9778 8.12426 13.899 8.26167 13.7616C8.39908 13.6242 8.4778 13.4388 8.48123 13.2445C8.48465 13.0502 8.41253 12.8622 8.28005 12.72L2.56005 7.00001L8.28005 1.28001C8.4205 1.13939 8.49939 0.948762 8.49939 0.750011C8.49939 0.551261 8.4205 0.360637 8.28005 0.220011Z" fill="white"/>
</svg>
