<svg width="14" height="9" viewBox="0 0 14 9" fill="none" xmlns="http://www.w3.org/2000/svg">
<path fill-rule="evenodd" clip-rule="evenodd" d="M0.220011 0.719951C0.0795608 0.860576 0.000671387 1.0512 0.000671387 1.24995C0.000671387 1.4487 0.0795608 1.63932 0.220011 1.77995L6.47001 8.02995C6.61064 8.1704 6.80126 8.24929 7.00001 8.24929C7.19876 8.24929 7.38939 8.1704 7.53001 8.02995L13.78 1.77995C13.9125 1.63778 13.9846 1.44973 13.9812 1.25543C13.9778 1.06113 13.899 0.875742 13.7616 0.738329C13.6242 0.600916 13.4388 0.522203 13.2445 0.518775C13.0502 0.515347 12.8622 0.587471 12.72 0.719951L7.00001 6.43995L1.28001 0.719951C1.13939 0.5795 0.948762 0.50061 0.750011 0.50061C0.551261 0.50061 0.360637 0.5795 0.220011 0.719951Z" fill="#135334"/>
</svg>
