<svg width="24" height="24" viewBox="0 0 24 24" fill="none" xmlns="http://www.w3.org/2000/svg">
<path fill-rule="evenodd" clip-rule="evenodd" d="M15.28 5.22001C15.1394 5.07956 14.9488 5.00067 14.75 5.00067C14.5513 5.00067 14.3607 5.07956 14.2201 5.22001L7.97005 11.47C7.8296 11.6106 7.75071 11.8013 7.75071 12C7.75071 12.1988 7.8296 12.3894 7.97005 12.53L14.2201 18.78C14.3622 18.9125 14.5503 18.9846 14.7446 18.9812C14.9389 18.9778 15.1243 18.899 15.2617 18.7616C15.3991 18.6242 15.4778 18.4388 15.4812 18.2445C15.4847 18.0502 15.4125 17.8622 15.28 17.72L9.56005 12L15.28 6.28001C15.4205 6.13939 15.4994 5.94876 15.4994 5.75001C15.4994 5.55126 15.4205 5.36064 15.28 5.22001V5.22001Z" fill="white"/>
</svg>
