<svg width="22" height="23" viewBox="0 0 22 23" fill="none" xmlns="http://www.w3.org/2000/svg">
<path fill-rule="evenodd" clip-rule="evenodd" d="M5.75 0C5.94891 0 6.13968 0.0790176 6.28033 0.21967C6.42098 0.360322 6.5 0.551088 6.5 0.75V3H15.5V0.75C15.5 0.551088 15.579 0.360322 15.7197 0.21967C15.8603 0.0790176 16.0511 0 16.25 0C16.4489 0 16.6397 0.0790176 16.7803 0.21967C16.921 0.360322 17 0.551088 17 0.75V3H19.75C20.716 3 21.5 3.784 21.5 4.75V20.75C21.5 21.2141 21.3156 21.6592 20.9874 21.9874C20.6592 22.3156 20.2141 22.5 19.75 22.5H2.25C1.78587 22.5 1.34075 22.3156 1.01256 21.9874C0.684375 21.6592 0.5 21.2141 0.5 20.75V4.75C0.5 3.784 1.284 3 2.25 3H5V0.75C5 0.551088 5.07902 0.360322 5.21967 0.21967C5.36032 0.0790176 5.55109 0 5.75 0V0ZM2.25 4.5C2.1837 4.5 2.12011 4.52634 2.07322 4.57322C2.02634 4.62011 2 4.6837 2 4.75V8H20V4.75C20 4.6837 19.9737 4.62011 19.9268 4.57322C19.8799 4.52634 19.8163 4.5 19.75 4.5H2.25ZM20 9.5H2V20.75C2 20.888 2.112 21 2.25 21H19.75C19.8163 21 19.8799 20.9737 19.9268 20.9268C19.9737 20.8799 20 20.8163 20 20.75V9.5Z" fill="#135334"/>
</svg>
