<svg width="20" height="20" viewBox="0 0 20 20" fill="none" xmlns="http://www.w3.org/2000/svg">
<path fill-rule="evenodd" clip-rule="evenodd" d="M9.99999 1.04167C7.92749 1.04167 6.02166 1.37667 4.61166 1.94083C3.90833 2.22167 3.29749 2.5725 2.85166 2.99417C2.40499 3.41667 2.08333 3.95333 2.08333 4.58333V15.4058L2.10499 15.4167H2.08333C2.08333 16.0467 2.40499 16.5833 2.85166 17.0058C3.29749 17.4275 3.90833 17.7783 4.61166 18.0592C6.02166 18.6233 7.92749 18.9583 9.99999 18.9583C12.0725 18.9583 13.9775 18.6233 15.3883 18.0592C16.0917 17.7783 16.7025 17.4275 17.1483 17.0058C17.595 16.5833 17.9167 16.0467 17.9167 15.4167H17.895L17.9167 15.4058V4.58333C17.9167 3.95333 17.595 3.41667 17.1483 2.99417C16.7025 2.5725 16.0917 2.22167 15.3883 1.94083C13.9775 1.37667 12.0725 1.04167 9.99999 1.04167ZM3.33333 4.58333C3.33333 4.40833 3.41999 4.1775 3.71083 3.9025C4.00249 3.62583 4.45999 3.3475 5.07583 3.10083C6.30499 2.60917 8.04583 2.29167 9.99999 2.29167C11.9542 2.29167 13.695 2.61 14.9242 3.10083C15.5408 3.3475 15.9967 3.62583 16.2892 3.9025C16.5808 4.1775 16.6667 4.4075 16.6667 4.58333C16.6667 4.75833 16.58 4.98917 16.2892 5.26417C15.9975 5.54083 15.54 5.81917 14.9242 6.06583C13.695 6.5575 11.9542 6.875 9.99999 6.875C8.04583 6.875 6.30499 6.55667 5.07583 6.06583C4.45916 5.81917 4.00333 5.54083 3.71083 5.26417C3.41916 4.98917 3.33333 4.75917 3.33333 4.58333ZM16.6667 10V6.55917C16.2664 6.82786 15.8377 7.05144 15.3883 7.22583C13.9775 7.79 12.0725 8.125 9.99999 8.125C7.92749 8.125 6.02166 7.79 4.61166 7.22583C4.16227 7.05143 3.73355 6.82785 3.33333 6.55917V10C3.33333 10.175 3.41999 10.4058 3.71083 10.6808C4.00249 10.9575 4.45999 11.2358 5.07583 11.4817C6.30499 11.9733 8.04583 12.2917 9.99999 12.2917C11.9542 12.2917 13.695 11.9733 14.9242 11.4817C15.5408 11.2358 15.9967 10.9575 16.2892 10.6817C16.5808 10.4067 16.6667 10.1758 16.6667 10V10ZM3.33333 11.9758C3.70249 12.23 4.13583 12.4525 4.61166 12.6425C6.02166 13.2067 7.92749 13.5417 9.99999 13.5417C12.0725 13.5417 13.9775 13.2067 15.3883 12.6425C15.8377 12.4681 16.2664 12.2445 16.6667 11.9758V15.4058L16.6775 15.4167H16.6667C16.6667 15.5917 16.58 15.8225 16.2892 16.0975C15.9975 16.3742 15.54 16.6525 14.9242 16.8992C13.695 17.3908 11.9542 17.7083 9.99999 17.7083C8.04583 17.7083 6.30499 17.39 5.07583 16.8992C4.45916 16.6525 4.00333 16.3742 3.71083 16.0975C3.41916 15.8225 3.33333 15.5925 3.33333 15.4167H3.32249L3.33333 15.4058V11.975V11.9758Z" fill="white"/>
</svg>
