<svg width="24" height="24" viewBox="0 0 24 24" fill="none" xmlns="http://www.w3.org/2000/svg">
<path fill-rule="evenodd" clip-rule="evenodd" d="M16 1.75V3H21.25C21.4489 3 21.6397 3.07902 21.7803 3.21967C21.921 3.36032 22 3.55109 22 3.75C22 3.94891 21.921 4.13968 21.7803 4.28033C21.6397 4.42098 21.4489 4.5 21.25 4.5H2.75C2.55109 4.5 2.36032 4.42098 2.21967 4.28033C2.07902 4.13968 2 3.94891 2 3.75C2 3.55109 2.07902 3.36032 2.21967 3.21967C2.36032 3.07902 2.55109 3 2.75 3H8V1.75C8 0.784 8.784 0 9.75 0H14.25C15.216 0 16 0.784 16 1.75ZM9.5 1.75C9.5 1.6837 9.52634 1.62011 9.57322 1.57322C9.62011 1.52634 9.6837 1.5 9.75 1.5H14.25C14.3163 1.5 14.3799 1.52634 14.4268 1.57322C14.4737 1.62011 14.5 1.6837 14.5 1.75V3H9.5V1.75Z" fill="#DC3333"/>
<path d="M4.99696 6.17797C4.98841 6.07923 4.96037 5.98317 4.91447 5.89533C4.86858 5.80749 4.80572 5.72962 4.72955 5.66622C4.65337 5.60282 4.56538 5.55514 4.47067 5.52595C4.37596 5.49676 4.2764 5.48663 4.17775 5.49614C4.0791 5.50566 3.98332 5.53463 3.89593 5.58138C3.80854 5.62814 3.73129 5.69175 3.66864 5.76854C3.60598 5.84534 3.55917 5.93378 3.5309 6.02878C3.50264 6.12377 3.49348 6.22342 3.50396 6.32197L4.91596 20.92C4.95819 21.3527 5.15997 21.7541 5.48199 22.0462C5.80401 22.3383 6.22321 22.5 6.65796 22.5H17.342C17.7769 22.5 18.1962 22.3381 18.5182 22.0458C18.8403 21.7536 19.042 21.3518 19.084 20.919L20.497 6.32197C20.5161 6.12386 20.4557 5.92627 20.3291 5.77268C20.2025 5.61908 20.0201 5.52207 19.822 5.50297C19.6238 5.48388 19.4263 5.54427 19.2727 5.67085C19.1191 5.79744 19.0221 5.97986 19.003 6.17797L17.591 20.774C17.585 20.8359 17.5562 20.8933 17.5101 20.9351C17.4641 20.9769 17.4041 21 17.342 21H6.65796C6.59578 21 6.53582 20.9769 6.48978 20.9351C6.44375 20.8933 6.41493 20.8359 6.40896 20.774L4.99696 6.17797Z" fill="#DC3333"/>
<path d="M9.20597 7.501C9.30433 7.49518 9.40288 7.50881 9.49598 7.54109C9.58909 7.57338 9.67491 7.6237 9.74856 7.68917C9.8222 7.75464 9.88222 7.83399 9.92519 7.92267C9.96815 8.01135 9.99322 8.10763 9.99896 8.206L10.499 16.706C10.5106 16.9048 10.4429 17.1001 10.3106 17.2489C10.1782 17.3977 9.99224 17.4878 9.79347 17.4995C9.59469 17.5112 9.39941 17.4434 9.2506 17.3111C9.10179 17.1788 9.01163 16.9928 8.99997 16.794L8.49997 8.294C8.49415 8.19563 8.50777 8.09708 8.54006 8.00398C8.57235 7.91088 8.62267 7.82505 8.68814 7.75141C8.75361 7.67776 8.83296 7.61774 8.92164 7.57478C9.01031 7.53181 9.10659 7.50674 9.20497 7.501H9.20597ZM15.499 8.294C15.5106 8.09522 15.4429 7.89994 15.3106 7.75113C15.1782 7.60232 14.9922 7.51217 14.7935 7.5005C14.5947 7.48883 14.3994 7.5566 14.2506 7.68891C14.1018 7.82122 14.0116 8.00722 14 8.206L13.5 16.706C13.4883 16.9046 13.556 17.0998 13.6882 17.2485C13.8204 17.3972 14.0063 17.4873 14.205 17.499C14.4036 17.5107 14.5988 17.4429 14.7475 17.3107C14.8962 17.1785 14.9863 16.9926 14.998 16.794L15.498 8.294H15.499Z" fill="#DC3333"/>
</svg>
