<svg width="24" height="24" viewBox="0 0 24 24" fill="none" xmlns="http://www.w3.org/2000/svg">
<path d="M12.5 6.75C12.5 6.55109 12.421 6.36032 12.2803 6.21967C12.1397 6.07902 11.9489 6 11.75 6C11.5511 6 11.3603 6.07902 11.2197 6.21967C11.079 6.36032 11 6.55109 11 6.75V9H8.75C8.55109 9 8.36032 9.07902 8.21967 9.21967C8.07902 9.36032 8 9.55109 8 9.75C8 9.94891 8.07902 10.1397 8.21967 10.2803C8.36032 10.421 8.55109 10.5 8.75 10.5H11V12.75C11 12.9489 11.079 13.1397 11.2197 13.2803C11.3603 13.421 11.5511 13.5 11.75 13.5C11.9489 13.5 12.1397 13.421 12.2803 13.2803C12.421 13.1397 12.5 12.9489 12.5 12.75V10.5H14.75C14.9489 10.5 15.1397 10.421 15.2803 10.2803C15.421 10.1397 15.5 9.94891 15.5 9.75C15.5 9.55109 15.421 9.36032 15.2803 9.21967C15.1397 9.07902 14.9489 9 14.75 9H12.5V6.75ZM8.75 16C8.55109 16 8.36032 16.079 8.21967 16.2197C8.07902 16.3603 8 16.5511 8 16.75C8 16.9489 8.07902 17.1397 8.21967 17.2803C8.36032 17.421 8.55109 17.5 8.75 17.5H14.75C14.9489 17.5 15.1397 17.421 15.2803 17.2803C15.421 17.1397 15.5 16.9489 15.5 16.75C15.5 16.5511 15.421 16.3603 15.2803 16.2197C15.1397 16.079 14.9489 16 14.75 16H8.75Z" fill="white"/>
<path fill-rule="evenodd" clip-rule="evenodd" d="M5 1C4.46957 1 3.96086 1.21071 3.58579 1.58579C3.21071 1.96086 3 2.46957 3 3V21C3 21.5304 3.21071 22.0391 3.58579 22.4142C3.96086 22.7893 4.46957 23 5 23H19C19.5304 23 20.0391 22.7893 20.4142 22.4142C20.7893 22.0391 21 21.5304 21 21V7.018C20.9999 6.48761 20.7891 5.97899 20.414 5.604L16.396 1.586C16.021 1.2109 15.5124 1.00011 14.982 1H5ZM4.5 3C4.5 2.86739 4.55268 2.74021 4.64645 2.64645C4.74021 2.55268 4.86739 2.5 5 2.5H14.982C15.0477 2.49988 15.1128 2.51272 15.1735 2.53777C15.2343 2.56282 15.2895 2.5996 15.336 2.646L19.354 6.664C19.4004 6.71052 19.4372 6.76573 19.4622 6.82647C19.4873 6.88721 19.5001 6.9523 19.5 7.018V21C19.5 21.1326 19.4473 21.2598 19.3536 21.3536C19.2598 21.4473 19.1326 21.5 19 21.5H5C4.86739 21.5 4.74021 21.4473 4.64645 21.3536C4.55268 21.2598 4.5 21.1326 4.5 21V3Z" fill="white"/>
</svg>
