<svg width="24" height="24" viewBox="0 0 24 24" fill="none" xmlns="http://www.w3.org/2000/svg">
<path fill-rule="evenodd" clip-rule="evenodd" d="M17.263 2.17701C17.5912 1.84909 18.0361 1.66489 18.5 1.66489C18.9639 1.66489 19.4088 1.84909 19.737 2.17701L22.323 4.76301C22.6509 5.09117 22.8351 5.5361 22.8351 6.00001C22.8351 6.46393 22.6509 6.90886 22.323 7.23701L19.53 10.03L19.518 10.043L8.69 20.378C8.49218 20.5671 8.25277 20.7072 7.991 20.787L2.468 22.467C2.3381 22.5063 2.19997 22.5096 2.06835 22.4766C1.93672 22.4435 1.81652 22.3754 1.72055 22.2795C1.62459 22.1835 1.55647 22.0633 1.52344 21.9317C1.49041 21.8 1.49371 21.6619 1.533 21.532L3.206 16.032C3.29374 15.7441 3.45424 15.4838 3.672 15.276L14.476 4.96301L17.263 2.17701ZM14.988 6.54801L4.708 16.361C4.67673 16.3906 4.65365 16.4278 4.641 16.469L3.377 20.623L7.554 19.352C7.5915 19.3405 7.62576 19.3203 7.654 19.293L17.927 9.48701L14.987 6.54801H14.988ZM19 8.44001L21.263 6.17801C21.2863 6.15479 21.3048 6.1272 21.3174 6.09683C21.33 6.06646 21.3364 6.0339 21.3364 6.00101C21.3364 5.96813 21.33 5.93557 21.3174 5.9052C21.3048 5.87482 21.2863 5.84724 21.263 5.82401L18.677 3.23801C18.6538 3.21473 18.6262 3.19626 18.5958 3.18366C18.5654 3.17105 18.5329 3.16457 18.5 3.16457C18.4671 3.16457 18.4346 3.17105 18.4042 3.18366C18.3738 3.19626 18.3462 3.21473 18.323 3.23801L16.061 5.50001L19 8.44001Z" fill="#135334"/>
</svg>
