<svg width="31" height="31" viewBox="0 0 31 31" fill="none" xmlns="http://www.w3.org/2000/svg">
<path fill-rule="evenodd" clip-rule="evenodd" d="M6.45833 3.22917C6.28705 3.22917 6.12278 3.29721 6.00166 3.41833C5.88054 3.53945 5.8125 3.70372 5.8125 3.87501V27.125C5.8125 27.2963 5.88054 27.4606 6.00166 27.5817C6.12278 27.7028 6.28705 27.7708 6.45833 27.7708H24.5417C24.713 27.7708 24.8772 27.7028 24.9983 27.5817C25.1195 27.4606 25.1875 27.2963 25.1875 27.125V10.9792H20.0208C19.3357 10.9792 18.6786 10.707 18.1941 10.2225C17.7097 9.73806 17.4375 9.08098 17.4375 8.39584V3.22917H6.45833ZM19.375 3.22917V8.39584C19.375 8.56712 19.443 8.73139 19.5642 8.85251C19.6853 8.97363 19.8495 9.04167 20.0208 9.04167H25.1875C25.1818 8.87836 25.1144 8.72327 24.9989 8.60767L19.809 3.41775C19.6934 3.30225 19.5383 3.23486 19.375 3.22917ZM3.875 3.87501C3.875 3.18986 4.14717 2.53278 4.63164 2.04831C5.11611 1.56384 5.77319 1.29167 6.45833 1.29167H19.3517C20.0368 1.29182 20.6938 1.56409 21.1782 2.04859L26.3681 7.23851C26.8526 7.72286 27.1249 8.37984 27.125 9.06492V27.125C27.125 27.8101 26.8528 28.4672 26.3684 28.9517C25.8839 29.4362 25.2268 29.7083 24.5417 29.7083H6.45833C5.77319 29.7083 5.11611 29.4362 4.63164 28.9517C4.14717 28.4672 3.875 27.8101 3.875 27.125V3.87501Z" fill="black"/>
</svg>
