<svg width="20" height="18" viewBox="0 0 20 18"  xmlns="http://www.w3.org/2000/svg">
<path fill-rule="evenodd" clip-rule="evenodd" d="M1.75 1.5C1.6837 1.5 1.62011 1.52634 1.57322 1.57322C1.52634 1.62011 1.5 1.6837 1.5 1.75V16.25C1.5 16.388 1.612 16.5 1.75 16.5H18.25C18.3163 16.5 18.3799 16.4737 18.4268 16.4268C18.4737 16.3799 18.5 16.3163 18.5 16.25V4.687C18.5 4.6207 18.4737 4.55711 18.4268 4.51022C18.3799 4.46334 18.3163 4.437 18.25 4.437H9.779C9.49372 4.43709 9.21275 4.36743 8.96055 4.2341C8.70835 4.10076 8.49257 3.9078 8.332 3.672L6.928 1.61C6.90502 1.576 6.87403 1.54818 6.83775 1.529C6.80148 1.50982 6.76104 1.49986 6.72 1.5H1.75ZM0 1.75C0 0.784 0.784 0 1.75 0H6.721C7.301 0 7.841 0.286 8.168 0.765L9.572 2.828C9.59488 2.86186 9.62572 2.88959 9.66181 2.90877C9.6979 2.92794 9.73813 2.93798 9.779 2.938H18.25C19.216 2.938 20 3.721 20 4.688V16.25C20 16.7141 19.8156 17.1592 19.4874 17.4874C19.1592 17.8156 18.7141 18 18.25 18H1.75C1.28587 18 0.840752 17.8156 0.512563 17.4874C0.184375 17.1592 0 16.7141 0 16.25V1.75Z"/>
</svg>
