<svg width="20" height="20" viewBox="0 0 20 20" fill="none" xmlns="http://www.w3.org/2000/svg">
<path d="M2.91669 3.12499C2.91669 3.06974 2.93864 3.01675 2.97771 2.97768C3.01678 2.93861 3.06977 2.91666 3.12502 2.91666H14.375C14.4303 2.91666 14.4833 2.93861 14.5223 2.97768C14.5614 3.01675 14.5834 3.06974 14.5834 3.12499V11.4583C14.5834 11.6241 14.6492 11.7831 14.7664 11.9003C14.8836 12.0175 15.0426 12.0833 15.2084 12.0833C15.3741 12.0833 15.5331 12.0175 15.6503 11.9003C15.7675 11.7831 15.8334 11.6241 15.8334 11.4583V3.12499C15.8334 2.73822 15.6797 2.36728 15.4062 2.09379C15.1327 1.8203 14.7618 1.66666 14.375 1.66666H3.12502C2.73825 1.66666 2.36731 1.8203 2.09382 2.09379C1.82033 2.36728 1.66669 2.73822 1.66669 3.12499V16.875C1.66669 17.68 2.32002 18.3333 3.12502 18.3333H8.95835C9.12411 18.3333 9.28309 18.2675 9.4003 18.1503C9.51751 18.0331 9.58335 17.8741 9.58335 17.7083C9.58335 17.5426 9.51751 17.3836 9.4003 17.2664C9.28309 17.1492 9.12411 17.0833 8.95835 17.0833H3.12502C3.06977 17.0833 3.01678 17.0614 2.97771 17.0223C2.93864 16.9832 2.91669 16.9302 2.91669 16.875V3.12499Z" fill="white"/>
<path d="M5.20831 5.83334C5.04255 5.83334 4.88358 5.89919 4.76637 6.0164C4.64916 6.13361 4.58331 6.29258 4.58331 6.45834C4.58331 6.6241 4.64916 6.78307 4.76637 6.90028C4.88358 7.0175 5.04255 7.08334 5.20831 7.08334H12.2916C12.4574 7.08334 12.6164 7.0175 12.7336 6.90028C12.8508 6.78307 12.9166 6.6241 12.9166 6.45834C12.9166 6.29258 12.8508 6.13361 12.7336 6.0164C12.6164 5.89919 12.4574 5.83334 12.2916 5.83334H5.20831ZM4.58331 9.79168C4.58331 9.62592 4.64916 9.46695 4.76637 9.34974C4.88358 9.23253 5.04255 9.16668 5.20831 9.16668H8.95831C9.12407 9.16668 9.28304 9.23253 9.40025 9.34974C9.51746 9.46695 9.58331 9.62592 9.58331 9.79168C9.58331 9.95744 9.51746 10.1164 9.40025 10.2336C9.28304 10.3508 9.12407 10.4167 8.95831 10.4167H5.20831C5.04255 10.4167 4.88358 10.3508 4.76637 10.2336C4.64916 10.1164 4.58331 9.95744 4.58331 9.79168V9.79168ZM18.15 13.5667C18.2114 13.5095 18.2606 13.4405 18.2948 13.3638C18.329 13.2871 18.3473 13.2044 18.3488 13.1204C18.3503 13.0365 18.3348 12.9532 18.3034 12.8753C18.272 12.7975 18.2252 12.7268 18.1658 12.6675C18.1065 12.6081 18.0358 12.5613 17.958 12.5299C17.8802 12.4985 17.7968 12.483 17.7129 12.4845C17.629 12.486 17.5462 12.5044 17.4695 12.5385C17.3929 12.5727 17.3239 12.6219 17.2666 12.6833L13.125 16.825L11.4833 15.1833C11.4261 15.1219 11.3571 15.0727 11.2804 15.0385C11.2038 15.0044 11.121 14.986 11.0371 14.9845C10.9532 14.983 10.8698 14.9985 10.792 15.0299C10.7142 15.0613 10.6435 15.1081 10.5841 15.1675C10.5248 15.2268 10.478 15.2975 10.4465 15.3753C10.4151 15.4532 10.3997 15.5365 10.4012 15.6204C10.4026 15.7044 10.421 15.7871 10.4552 15.8638C10.4893 15.9405 10.5386 16.0095 10.6 16.0667L12.6833 18.15C12.8005 18.2671 12.9594 18.3328 13.125 18.3328C13.2906 18.3328 13.4495 18.2671 13.5666 18.15L18.15 13.5667Z" fill="white"/>
</svg>
