<svg width="24" height="24" viewBox="0 0 24 24" fill="none" xmlns="http://www.w3.org/2000/svg">
<path d="M11.25 1.5V12H12.75V1.5H11.25Z" fill="#135334"/>
<path d="M4.5 13.218C4.49964 11.8784 4.85812 10.5633 5.53817 9.40917C6.21823 8.25508 7.19502 7.30424 8.367 6.6555L7.6395 5.3445C5.90029 6.3076 4.52891 7.81946 3.73946 9.64407C2.95001 11.4687 2.78692 13.5033 3.27565 15.4304C3.76437 17.3574 4.87741 19.0685 6.441 20.2963C8.00459 21.5241 9.93073 22.1997 11.9187 22.2176C13.9067 22.2354 15.8447 21.5945 17.43 20.3949C19.0154 19.1953 20.159 17.5045 20.6822 15.5866C21.2054 13.6686 21.0788 11.6313 20.3223 9.79286C19.5657 7.95438 18.2216 6.41815 16.5 5.424L15.7485 6.7215C16.8888 7.37952 17.8359 8.32614 18.4944 9.46619C19.1529 10.6062 19.4998 11.8996 19.5 13.2161C19.5002 14.5327 19.1539 15.8262 18.4958 16.9665C17.8377 18.1068 16.891 19.0537 15.7509 19.7122C14.6108 20.3707 13.3175 20.7174 12.0009 20.7176C10.6843 20.7177 9.39092 20.3713 8.25066 19.7131C7.1104 19.055 6.16349 18.1082 5.50511 16.9681C4.84673 15.8279 4.50008 14.5346 4.5 13.218V13.218Z" fill="#135334"/>
</svg>
