<svg width="154" height="102" viewBox="0 0 154 102" fill="none" xmlns="http://www.w3.org/2000/svg">
<path d="M57.12 46.7684L63.024 55.3844H58.656L53.28 47.6084V55.3844H49.44V38.5844H53.28V45.8804L58.416 38.5844H62.784L57.12 46.7684ZM77.1834 38.5844V51.6884H78.9834V58.6004H75.1434V55.3844H64.4634V38.5844H68.3034V51.6884H73.3434V38.5844H77.1834ZM93.9938 38.5844H97.8338V55.3844H93.9938V45.6164L89.6498 52.7444H89.2178L84.8738 45.6164V55.3844H81.0338V38.5844H84.8738L89.4338 46.0484L93.9938 38.5844ZM100.721 38.5844H107.081C108.745 38.5844 110.137 39.1444 111.257 40.2644C112.393 41.4004 112.961 42.7604 112.961 44.3444C112.961 45.9284 112.393 47.2884 111.257 48.4244C110.137 49.5444 108.745 50.1044 107.081 50.1044H104.561V55.3844H100.721V38.5844ZM104.561 46.5044H107.081C107.673 46.5044 108.161 46.2964 108.545 45.8804C108.929 45.4644 109.121 44.9524 109.121 44.3444C109.121 43.7364 108.929 43.2244 108.545 42.8084C108.161 42.3924 107.673 42.1844 107.081 42.1844H104.561V46.5044Z" fill="#135334"/>
<path d="M51.708 62.3844H56.72V69.3844H55.796V63.2804H52.632V66.4024C52.632 67.5691 52.408 68.3717 51.96 68.8104C51.5213 69.2491 50.9147 69.4404 50.14 69.3844V68.5164C50.6813 68.5724 51.078 68.4417 51.33 68.1244C51.582 67.8071 51.708 67.2331 51.708 66.4024V62.3844ZM59.6013 67.7744L63.7733 62.3844H64.5573V69.3844H63.6333V63.9944L59.4613 69.3844H58.6773V62.3844H59.6013V67.7744ZM71.0473 65.8704V62.3844H71.9713V69.3844H71.0473V66.7244C70.5059 67.0044 69.8386 67.1444 69.0453 67.1444C68.1213 67.1444 67.4213 66.9344 66.9453 66.5144C66.4693 66.0851 66.2313 65.4551 66.2313 64.6244V62.3844H67.1553V64.6244C67.1553 65.2031 67.3046 65.6231 67.6033 65.8844C67.9113 66.1457 68.3826 66.2764 69.0173 66.2764C69.7266 66.2764 70.4033 66.1411 71.0473 65.8704ZM78.8911 65.4364V62.3844H79.8151V69.3844H78.8911V66.3324H74.8591V69.3844H73.9351V62.3844H74.8591V65.4364H78.8911ZM82.6931 65.0444H84.6111C85.2551 65.0444 85.8057 65.2497 86.2631 65.6604C86.7204 66.0617 86.9491 66.5797 86.9491 67.2144C86.9491 67.8584 86.7204 68.3811 86.2631 68.7824C85.8244 69.1837 85.2737 69.3844 84.6111 69.3844H81.7691V62.3844H82.6931V65.0444ZM87.9291 69.3844V62.3844H88.8531V69.3844H87.9291ZM82.6931 68.4884H84.6111C85.0124 68.4884 85.3484 68.3717 85.6191 68.1384C85.8897 67.8957 86.0251 67.5877 86.0251 67.2144C86.0251 66.8411 85.8897 66.5377 85.6191 66.3044C85.3484 66.0617 85.0124 65.9404 84.6111 65.9404H82.6931V68.4884ZM95.5798 61.2644H91.9398V60.4524H95.5798V61.2644ZM91.7438 67.7744L95.9158 62.3844H96.6998V69.3844H95.7758V63.9944L91.6038 69.3844H90.8198V62.3844H91.7438V67.7744ZM104.058 65.7444L107.81 69.3844H106.578L103.078 66.0104V69.3844H102.154V62.3844H103.078V65.4784L106.41 62.3844H107.67L104.058 65.7444ZM114.395 63.7564V62.3844H115.319V69.3844H114.395V68.0124C113.751 69.0391 112.808 69.5524 111.567 69.5524C110.568 69.5524 109.714 69.1977 109.005 68.4884C108.305 67.7791 107.955 66.9111 107.955 65.8844C107.955 64.8577 108.305 63.9897 109.005 63.2804C109.714 62.5711 110.568 62.2164 111.567 62.2164C112.808 62.2164 113.751 62.7297 114.395 63.7564ZM109.677 67.8584C110.209 68.3904 110.862 68.6564 111.637 68.6564C112.411 68.6564 113.065 68.3904 113.597 67.8584C114.129 67.3077 114.395 66.6497 114.395 65.8844C114.395 65.1097 114.129 64.4564 113.597 63.9244C113.065 63.3831 112.411 63.1124 111.637 63.1124C110.862 63.1124 110.209 63.3831 109.677 63.9244C109.145 64.4564 108.879 65.1097 108.879 65.8844C108.879 66.6497 109.145 67.3077 109.677 67.8584ZM120.383 69.5524C119.384 69.5524 118.544 69.2211 117.863 68.5584C117.191 67.8864 116.855 67.0184 116.855 65.9544C116.855 64.7597 117.032 63.8451 117.387 63.2104C117.742 62.5664 118.46 61.9831 119.543 61.4604C119.888 61.3017 120.159 61.1804 120.355 61.0964C120.682 60.9657 120.938 60.8537 121.125 60.7604C121.937 60.3871 122.348 59.9251 122.357 59.3744L123.085 59.7944C123.038 60.0277 122.964 60.2377 122.861 60.4244C122.74 60.6297 122.618 60.7931 122.497 60.9144C122.385 61.0357 122.208 61.1664 121.965 61.3064C121.806 61.3997 121.615 61.5024 121.391 61.6144L120.691 61.9084L120.033 62.1884C119.389 62.4684 118.908 62.7624 118.591 63.0704C118.283 63.3691 118.064 63.7611 117.933 64.2464C118.232 63.8451 118.624 63.5417 119.109 63.3364C119.594 63.1217 120.084 63.0144 120.579 63.0144C121.512 63.0144 122.282 63.3224 122.889 63.9384C123.505 64.5451 123.813 65.3244 123.813 66.2764C123.813 67.2191 123.486 68.0031 122.833 68.6284C122.189 69.2444 121.372 69.5524 120.383 69.5524ZM118.563 67.9424C119.048 68.3997 119.655 68.6284 120.383 68.6284C121.111 68.6284 121.708 68.4091 122.175 67.9704C122.651 67.5224 122.889 66.9577 122.889 66.2764C122.889 65.5857 122.665 65.0211 122.217 64.5824C121.778 64.1344 121.19 63.9104 120.453 63.9104C119.79 63.9104 119.188 64.1204 118.647 64.5404C118.106 64.9417 117.835 65.4924 117.835 66.1924C117.835 66.9017 118.078 67.4851 118.563 67.9424ZM126.142 67.7744L130.314 62.3844H131.098V69.3844H130.174V63.9944L126.002 69.3844H125.218V62.3844H126.142V67.7744ZM138.008 65.4364V62.3844H138.932V69.3844H138.008V66.3324H133.976V69.3844H133.052V62.3844H133.976V65.4364H138.008ZM144.12 62.2164C145.166 62.2164 146.001 62.5851 146.626 63.3224C147.27 64.0504 147.592 64.9137 147.592 65.9124C147.592 65.9591 147.583 66.1037 147.564 66.3464H141.418C141.512 67.0464 141.81 67.6064 142.314 68.0264C142.818 68.4464 143.448 68.6564 144.204 68.6564C145.268 68.6564 146.02 68.2597 146.458 67.4664L147.27 67.9424C146.962 68.4464 146.538 68.8431 145.996 69.1324C145.464 69.4124 144.862 69.5524 144.19 69.5524C143.089 69.5524 142.193 69.2071 141.502 68.5164C140.812 67.8257 140.466 66.9484 140.466 65.8844C140.466 64.8297 140.807 63.9571 141.488 63.2664C142.17 62.5664 143.047 62.2164 144.12 62.2164ZM144.12 63.1124C143.392 63.1124 142.781 63.3271 142.286 63.7564C141.801 64.1857 141.512 64.7504 141.418 65.4504H146.64C146.538 64.7037 146.253 64.1297 145.786 63.7284C145.301 63.3177 144.746 63.1124 144.12 63.1124ZM147.949 62.3844H153.829V63.2804H151.351V69.3844H150.427V63.2804H147.949V62.3844Z" fill="#1E2321"/>
<path d="M16.7819 78.3433C14.2065 78.3433 12.1295 80.4203 12.1295 82.9957C12.1295 85.5712 14.2065 87.6481 16.7819 87.6481C19.3574 87.6481 21.4343 85.5712 21.4343 82.9957C21.4343 80.4203 19.3574 78.3433 16.7819 78.3433ZM27.5614 14.5803C29.9914 14.5803 31.9438 12.6072 31.9438 10.1979C31.9438 7.76787 29.9707 5.81552 27.5614 5.81552C25.1313 5.81552 23.179 7.78864 23.179 10.1979C23.179 12.6072 25.1313 14.5803 27.5614 14.5803ZM27.6029 87.482C25.1936 87.482 23.2205 89.4343 23.2205 91.8644C23.2205 94.2737 25.1729 96.2468 27.6029 96.2468C30.0122 96.2468 31.9853 94.2944 31.9853 91.8644C31.9646 89.4343 30.0122 87.482 27.6029 87.482ZM13.8326 71.3855C13.8326 68.7062 11.6726 66.5461 8.99328 66.5461C6.31399 66.5461 4.15394 68.7062 4.15394 71.3855C4.15394 74.0647 6.31399 76.2248 8.99328 76.2248C11.6726 76.2248 13.8326 74.0647 13.8326 71.3855ZM40.4801 8.84789C42.7025 8.84789 44.4887 7.0617 44.4887 4.83934C44.4887 2.61698 42.7025 0.830789 40.4801 0.830789C38.2578 0.830789 36.4716 2.61698 36.4716 4.83934C36.4716 7.0617 38.2578 8.84789 40.4801 8.84789ZM8.97251 35.4954C11.6518 35.4954 13.8118 33.3354 13.8118 30.6561C13.8118 27.9768 11.6518 25.8167 8.97251 25.8167C6.29322 25.8167 4.13317 27.9768 4.13317 30.6561C4.13317 33.3354 6.31399 35.4954 8.97251 35.4954ZM9.86561 58.0098C9.86561 55.2889 7.66402 53.0874 4.94319 53.0874C2.22236 53.0874 0.0207702 55.2889 0.0207702 58.0098C0.0207702 60.7306 2.22236 62.9322 4.94319 62.9322C7.66402 62.953 9.86561 60.7306 9.86561 58.0098ZM16.7611 23.719C19.3366 23.719 21.4343 21.6213 21.4343 19.0458C21.4343 16.4704 19.3366 14.3726 16.7611 14.3726C14.1857 14.3726 12.088 16.4704 12.088 19.0458C12.088 21.6213 14.1857 23.719 16.7611 23.719ZM4.92242 48.975C7.64325 48.975 9.84484 46.7734 9.84484 44.0525C9.84484 41.3317 7.64325 39.1301 4.92242 39.1301C2.20159 39.1301 0 41.3317 0 44.0525C0 46.7526 2.20159 48.975 4.92242 48.975ZM68.1038 9.13867C69.7031 9.13867 70.9908 7.85095 70.9908 6.25168C70.9908 4.65241 69.7031 3.36469 68.1038 3.36469C66.5046 3.36469 65.2169 4.65241 65.2169 6.25168C65.1961 7.85095 66.5046 9.13867 68.1038 9.13867ZM80.441 87.025C79.2779 87.025 78.3433 87.9597 78.3433 89.1228C78.3433 90.2859 79.2779 91.2205 80.441 91.2205C81.6042 91.2205 82.5388 90.2859 82.5388 89.1228C82.5388 87.9597 81.6042 87.025 80.441 87.025ZM80.3995 14.975C81.5626 14.975 82.518 14.0403 82.518 12.8564C82.518 11.6933 81.5834 10.7379 80.3995 10.7379C79.2364 10.7379 78.281 11.6726 78.281 12.8564C78.3018 14.0403 79.2364 14.975 80.3995 14.975ZM90.2651 23.9475C90.909 23.9475 91.449 23.4282 91.449 22.7636C91.449 22.099 90.9297 21.5797 90.2651 21.5797C89.6212 21.5797 89.0812 22.099 89.0812 22.7636C89.0812 23.4282 89.6212 23.9475 90.2651 23.9475ZM90.2859 78.0318C89.642 78.0318 89.1228 78.551 89.1228 79.1949C89.1228 79.8387 89.642 80.358 90.2859 80.358C90.9297 80.358 91.449 79.8387 91.449 79.1949C91.4698 78.5718 90.9297 78.0318 90.2859 78.0318ZM68.1454 92.8821C66.5461 92.8821 65.2584 94.1698 65.2584 95.7691C65.2584 97.3683 66.5461 98.6561 68.1454 98.6561C69.7446 98.6561 71.0324 97.3683 71.0324 95.7691C71.0116 94.1698 69.7239 92.8821 68.1454 92.8821ZM54.3958 7.02016C56.3274 7.02016 57.9059 5.44166 57.9059 3.51008C57.9059 1.5785 56.3274 0 54.3958 0C52.4643 0 50.8858 1.5785 50.8858 3.51008C50.8858 5.44166 52.4435 7.02016 54.3958 7.02016ZM40.5217 93.1936C38.3201 93.1936 36.5339 94.9798 36.5339 97.1814C36.5339 99.383 38.3201 101.169 40.5217 101.169C42.7233 101.169 44.5095 99.383 44.5095 97.1814C44.5095 94.9798 42.7233 93.1936 40.5217 93.1936ZM54.4374 95.0214C52.5058 95.0214 50.9481 96.5791 50.9481 98.5107C50.9481 100.442 52.5058 102 54.4374 102C56.369 102 57.9267 100.442 57.9267 98.5107C57.9267 96.5791 56.369 95.0214 54.4374 95.0214Z" fill="#AA7530"/>
<path d="M25.2353 51.0103C25.2353 48.2687 23.0129 46.0672 20.2921 46.0672C17.5505 46.0672 15.3489 48.2895 15.3489 51.0103C15.3489 53.7519 17.5712 55.9535 20.2921 55.9535C23.0129 55.9535 25.2353 53.7312 25.2353 51.0103ZM31.6116 70.8039C29.14 70.8039 27.1253 72.8185 27.1253 75.2901C27.1253 77.7617 29.14 79.7764 31.6116 79.7764C34.0831 79.7764 36.0978 77.7617 36.0978 75.2901C36.0978 72.8185 34.0831 70.8039 31.6116 70.8039ZM23.2414 59.5882C20.5828 59.5882 18.4228 61.7483 18.4228 64.4068C18.4228 67.0653 20.5828 69.2254 23.2414 69.2254C25.8999 69.2254 28.0599 67.0653 28.0599 64.4068C28.0599 61.7483 25.8999 59.5882 23.2414 59.5882ZM23.2414 42.4325C25.9207 42.4325 28.0807 40.2724 28.0807 37.5931C28.0807 34.9138 25.9207 32.7538 23.2414 32.7538C20.5621 32.7538 18.402 34.9138 18.402 37.5931C18.402 40.2724 20.5828 42.4325 23.2414 42.4325ZM70.1809 26.7929C71.1571 26.7929 71.9463 26.0036 71.9463 25.0275C71.9463 24.0513 71.1571 23.262 70.1809 23.262C69.2047 23.262 68.4155 24.0513 68.4155 25.0275C68.4362 26.0244 69.2255 26.7929 70.1809 26.7929ZM31.6116 22.2028C29.1192 22.2028 27.1045 24.2174 27.1045 26.7098C27.1045 29.2022 29.1192 31.2168 31.6116 31.2168C34.1039 31.2168 36.1186 29.2022 36.1186 26.7098C36.1186 24.2174 34.1039 22.2028 31.6116 22.2028ZM43.7826 77.7617C41.6433 77.7617 39.8987 79.5064 39.8987 81.6457C39.8987 83.7849 41.6433 85.5296 43.7826 85.5296C45.9219 85.5296 47.6665 83.7849 47.6665 81.6457C47.6665 79.5064 45.9219 77.7617 43.7826 77.7617ZM70.1809 75.2278C69.2047 75.2278 68.4362 76.0171 68.4362 76.9725C68.4362 77.9486 69.2255 78.7171 70.1809 78.7171C71.1571 78.7171 71.9255 77.9279 71.9255 76.9725C71.9255 76.0171 71.1363 75.2278 70.1809 75.2278ZM57.5114 16.7819C55.8498 16.7819 54.4998 18.1319 54.4998 19.7935C54.4998 21.4551 55.8498 22.8051 57.5114 22.8051C59.1729 22.8051 60.523 21.4551 60.523 19.7935C60.523 18.1111 59.1729 16.7819 57.5114 16.7819ZM57.4906 79.2571C55.829 79.2571 54.4998 80.6072 54.4998 82.248C54.4998 83.9095 55.8498 85.2388 57.4906 85.2388C59.1522 85.2388 60.4814 83.8888 60.4814 82.248C60.4814 80.5864 59.1522 79.2571 57.4906 79.2571ZM43.7826 16.4703C41.6225 16.4703 39.8779 18.215 39.8779 20.375C39.8779 22.5351 41.6225 24.2797 43.7826 24.2797C45.9426 24.2797 47.6873 22.5351 47.6873 20.375C47.6873 18.215 45.9426 16.4703 43.7826 16.4703Z" fill="#135334"/>
</svg>
