<svg width="115" height="57" viewBox="0 0 115 57" fill="none" xmlns="http://www.w3.org/2000/svg">
<path d="M31.08 23.256L35.016 29H32.104L28.52 23.816V29H25.96V17.8H28.52V22.664L31.944 17.8H34.856L31.08 23.256ZM44.4556 17.8V26.536H45.6556V31.144H43.0956V29H35.9756V17.8H38.5356V26.536H41.8956V17.8H44.4556ZM55.6625 17.8H58.2225V29H55.6625V22.488L52.7665 27.24H52.4785L49.5825 22.488V29H47.0225V17.8H49.5825L52.6225 22.776L55.6625 17.8ZM60.1475 17.8H64.3875C65.4968 17.8 66.4248 18.1734 67.1715 18.92C67.9288 19.6774 68.3075 20.584 68.3075 21.64C68.3075 22.696 67.9288 23.6027 67.1715 24.36C66.4248 25.1067 65.4968 25.48 64.3875 25.48H62.7075V29H60.1475V17.8ZM62.7075 23.08H64.3875C64.7822 23.08 65.1075 22.9414 65.3635 22.664C65.6195 22.3867 65.7475 22.0454 65.7475 21.64C65.7475 21.2347 65.6195 20.8934 65.3635 20.616C65.1075 20.3387 64.7822 20.2 64.3875 20.2H62.7075V23.08Z" fill="#135334"/>
<path d="M26.464 32H30.76V38H29.968V32.768H27.256V35.444C27.256 36.444 27.064 37.132 26.68 37.508C26.304 37.884 25.784 38.048 25.12 38V37.256C25.584 37.304 25.924 37.192 26.14 36.92C26.356 36.648 26.464 36.156 26.464 35.444V32ZM33.2297 36.62L36.8057 32H37.4777V38H36.6857V33.38L33.1097 38H32.4377V32H33.2297V36.62ZM43.0405 34.988V32H43.8325V38H43.0405V35.72C42.5765 35.96 42.0045 36.08 41.3245 36.08C40.5325 36.08 39.9325 35.9 39.5245 35.54C39.1165 35.172 38.9125 34.632 38.9125 33.92V32H39.7045V33.92C39.7045 34.416 39.8325 34.776 40.0885 35C40.3525 35.224 40.7565 35.336 41.3005 35.336C41.9085 35.336 42.4885 35.22 43.0405 34.988ZM49.7638 34.616V32H50.5558V38H49.7638V35.384H46.3078V38H45.5158V32H46.3078V34.616H49.7638ZM53.0226 34.28H54.6666C55.2186 34.28 55.6906 34.456 56.0826 34.808C56.4746 35.152 56.6706 35.596 56.6706 36.14C56.6706 36.692 56.4746 37.14 56.0826 37.484C55.7066 37.828 55.2346 38 54.6666 38H52.2306V32H53.0226V34.28ZM57.5106 38V32H58.3026V38H57.5106ZM53.0226 37.232H54.6666C55.0106 37.232 55.2986 37.132 55.5306 36.932C55.7626 36.724 55.8786 36.46 55.8786 36.14C55.8786 35.82 55.7626 35.56 55.5306 35.36C55.2986 35.152 55.0106 35.048 54.6666 35.048H53.0226V37.232ZM64.0684 31.04H60.9484V30.344H64.0684V31.04ZM60.7804 36.62L64.3564 32H65.0284V38H64.2364V33.38L60.6604 38H59.9884V32H60.7804V36.62ZM71.3353 34.88L74.5513 38H73.4953L70.4953 35.108V38H69.7033V32H70.4953V34.652L73.3513 32H74.4313L71.3353 34.88ZM80.1953 33.176V32H80.9873V38H80.1953V36.824C79.6433 37.704 78.8353 38.144 77.7713 38.144C76.9153 38.144 76.1833 37.84 75.5753 37.232C74.9753 36.624 74.6753 35.88 74.6753 35C74.6753 34.12 74.9753 33.376 75.5753 32.768C76.1833 32.16 76.9153 31.856 77.7713 31.856C78.8353 31.856 79.6433 32.296 80.1953 33.176ZM76.1513 36.692C76.6073 37.148 77.1673 37.376 77.8313 37.376C78.4953 37.376 79.0553 37.148 79.5113 36.692C79.9673 36.22 80.1953 35.656 80.1953 35C80.1953 34.336 79.9673 33.776 79.5113 33.32C79.0553 32.856 78.4953 32.624 77.8313 32.624C77.1673 32.624 76.6073 32.856 76.1513 33.32C75.6953 33.776 75.4673 34.336 75.4673 35C75.4673 35.656 75.6953 36.22 76.1513 36.692ZM85.3282 38.144C84.4722 38.144 83.7522 37.86 83.1682 37.292C82.5922 36.716 82.3042 35.972 82.3042 35.06C82.3042 34.036 82.4562 33.252 82.7602 32.708C83.0642 32.156 83.6802 31.656 84.6082 31.208C84.9042 31.072 85.1362 30.968 85.3042 30.896C85.5842 30.784 85.8042 30.688 85.9642 30.608C86.6602 30.288 87.0122 29.892 87.0202 29.42L87.6442 29.78C87.6042 29.98 87.5402 30.16 87.4522 30.32C87.3482 30.496 87.2442 30.636 87.1402 30.74C87.0442 30.844 86.8922 30.956 86.6842 31.076C86.5482 31.156 86.3842 31.244 86.1922 31.34L85.5922 31.592L85.0282 31.832C84.4762 32.072 84.0642 32.324 83.7922 32.588C83.5282 32.844 83.3402 33.18 83.2282 33.596C83.4842 33.252 83.8202 32.992 84.2362 32.816C84.6522 32.632 85.0722 32.54 85.4962 32.54C86.2962 32.54 86.9562 32.804 87.4762 33.332C88.0042 33.852 88.2682 34.52 88.2682 35.336C88.2682 36.144 87.9882 36.816 87.4282 37.352C86.8762 37.88 86.1762 38.144 85.3282 38.144ZM83.7682 36.764C84.1842 37.156 84.7042 37.352 85.3282 37.352C85.9522 37.352 86.4642 37.164 86.8642 36.788C87.2722 36.404 87.4762 35.92 87.4762 35.336C87.4762 34.744 87.2842 34.26 86.9002 33.884C86.5242 33.5 86.0202 33.308 85.3882 33.308C84.8202 33.308 84.3042 33.488 83.8402 33.848C83.3762 34.192 83.1442 34.664 83.1442 35.264C83.1442 35.872 83.3522 36.372 83.7682 36.764ZM90.2648 36.62L93.8408 32H94.5128V38H93.7208V33.38L90.1448 38H89.4728V32H90.2648V36.62ZM100.436 34.616V32H101.228V38H100.436V35.384H96.9797V38H96.1877V32H96.9797V34.616H100.436ZM105.675 31.856C106.571 31.856 107.287 32.172 107.823 32.804C108.375 33.428 108.651 34.168 108.651 35.024C108.651 35.064 108.643 35.188 108.627 35.396H103.359C103.439 35.996 103.695 36.476 104.127 36.836C104.559 37.196 105.099 37.376 105.747 37.376C106.659 37.376 107.303 37.036 107.679 36.356L108.375 36.764C108.111 37.196 107.747 37.536 107.283 37.784C106.827 38.024 106.311 38.144 105.735 38.144C104.791 38.144 104.023 37.848 103.431 37.256C102.839 36.664 102.543 35.912 102.543 35C102.543 34.096 102.835 33.348 103.419 32.756C104.003 32.156 104.755 31.856 105.675 31.856ZM105.675 32.624C105.051 32.624 104.527 32.808 104.103 33.176C103.687 33.544 103.439 34.028 103.359 34.628H107.835C107.747 33.988 107.503 33.496 107.103 33.152C106.687 32.8 106.211 32.624 105.675 32.624ZM108.956 32H113.996V32.768H111.872V38H111.08V32.768H108.956V32Z" fill="#1E2321"/>
<path d="M9.04907 43.4313C7.66035 43.4313 6.54042 44.5767 6.54042 45.997C6.54042 47.4173 7.66035 48.5627 9.04907 48.5627C10.4378 48.5627 11.5577 47.4173 11.5577 45.997C11.5577 44.5767 10.4378 43.4313 9.04907 43.4313ZM14.8615 8.26792C16.1719 8.26792 17.2246 7.1798 17.2246 5.85115C17.2246 4.51105 16.1607 3.43438 14.8615 3.43438C13.5512 3.43438 12.4985 4.5225 12.4985 5.85115C12.4985 7.1798 13.5512 8.26792 14.8615 8.26792ZM14.8839 48.471C13.5848 48.471 12.5209 49.5477 12.5209 50.8878C12.5209 52.2165 13.5736 53.3046 14.8839 53.3046C16.1831 53.3046 17.247 52.2279 17.247 50.8878C17.2358 49.5477 16.1831 48.471 14.8839 48.471ZM7.45876 39.5943C7.45876 38.1167 6.29403 36.9255 4.84932 36.9255C3.4046 36.9255 2.23987 38.1167 2.23987 39.5943C2.23987 41.0718 3.4046 42.263 4.84932 42.263C6.29403 42.263 7.45876 41.0718 7.45876 39.5943ZM21.8275 5.10665C23.0259 5.10665 23.989 4.12161 23.989 2.89605C23.989 1.67048 23.0259 0.685451 21.8275 0.685451C20.6292 0.685451 19.6661 1.67048 19.6661 2.89605C19.6661 4.12161 20.6292 5.10665 21.8275 5.10665ZM4.83812 19.802C6.28283 19.802 7.44756 18.6108 7.44756 17.1332C7.44756 15.6557 6.28283 14.4645 4.83812 14.4645C3.3934 14.4645 2.22867 15.6557 2.22867 17.1332C2.22867 18.6108 3.4046 19.802 4.83812 19.802ZM5.31969 32.218C5.31969 30.7175 4.13256 29.5034 2.66544 29.5034C1.19833 29.5034 0.0111996 30.7175 0.0111996 32.218C0.0111996 33.7184 1.19833 34.9325 2.66544 34.9325C4.13256 34.944 5.31969 33.7184 5.31969 32.218ZM9.03787 13.3076C10.4266 13.3076 11.5577 12.1508 11.5577 10.7305C11.5577 9.31022 10.4266 8.15338 9.03787 8.15338C7.64915 8.15338 6.51802 9.31022 6.51802 10.7305C6.51802 12.1508 7.64915 13.3076 9.03787 13.3076ZM2.65424 27.2355C4.12136 27.2355 5.30849 26.0214 5.30849 24.521C5.30849 23.0205 4.12136 21.8064 2.65424 21.8064C1.18713 21.8064 0 23.0205 0 24.521C0 26.01 1.18713 27.2355 2.65424 27.2355ZM36.7227 5.267C37.585 5.267 38.2794 4.55686 38.2794 3.67491C38.2794 2.79296 37.585 2.08282 36.7227 2.08282C35.8603 2.08282 35.1659 2.79296 35.1659 3.67491C35.1547 4.55686 35.8603 5.267 36.7227 5.267ZM43.3751 48.219C42.7479 48.219 42.2439 48.7345 42.2439 49.3759C42.2439 50.0173 42.7479 50.5327 43.3751 50.5327C44.0022 50.5327 44.5062 50.0173 44.5062 49.3759C44.5062 48.7345 44.0022 48.219 43.3751 48.219ZM43.3527 8.48554C43.9798 8.48554 44.495 7.97012 44.495 7.31725C44.495 6.67583 43.991 6.14895 43.3527 6.14895C42.7255 6.14895 42.2103 6.66438 42.2103 7.31725C42.2215 7.97012 42.7255 8.48554 43.3527 8.48554ZM48.6724 13.4336C49.0195 13.4336 49.3107 13.1473 49.3107 12.7807C49.3107 12.4142 49.0307 12.1279 48.6724 12.1279C48.3252 12.1279 48.034 12.4142 48.034 12.7807C48.034 13.1473 48.3252 13.4336 48.6724 13.4336ZM48.6836 43.2595C48.3364 43.2595 48.0564 43.5459 48.0564 43.9009C48.0564 44.256 48.3364 44.5424 48.6836 44.5424C49.0307 44.5424 49.3107 44.256 49.3107 43.9009C49.3219 43.5573 49.0307 43.2595 48.6836 43.2595ZM36.7451 51.449C35.8827 51.449 35.1883 52.1592 35.1883 53.0411C35.1883 53.9231 35.8827 54.6332 36.7451 54.6332C37.6074 54.6332 38.3018 53.9231 38.3018 53.0411C38.2906 52.1592 37.5962 51.449 36.7451 51.449ZM29.3311 4.09871C30.3726 4.09871 31.2238 3.22821 31.2238 2.163C31.2238 1.09779 30.3726 0.227295 29.3311 0.227295C28.2895 0.227295 27.4384 1.09779 27.4384 2.163C27.4384 3.22821 28.2783 4.09871 29.3311 4.09871ZM21.8499 51.6208C20.6628 51.6208 19.6996 52.6059 19.6996 53.82C19.6996 55.0341 20.6628 56.0191 21.8499 56.0191C23.0371 56.0191 24.0002 55.0341 24.0002 53.82C24.0002 52.6059 23.0371 51.6208 21.8499 51.6208ZM29.3535 52.6288C28.3119 52.6288 27.472 53.4878 27.472 54.553C27.472 55.6183 28.3119 56.4773 29.3535 56.4773C30.395 56.4773 31.235 55.6183 31.235 54.553C31.235 53.4878 30.395 52.6288 29.3535 52.6288Z" fill="#AA7530"/>
<path d="M13.6073 28.358C13.6073 26.8461 12.4089 25.632 10.9418 25.632C9.4635 25.632 8.27637 26.8575 8.27637 28.358C8.27637 29.8699 9.4747 31.084 10.9418 31.084C12.4089 31.084 13.6073 29.8584 13.6073 28.358ZM17.0455 39.2735C15.7127 39.2735 14.6264 40.3846 14.6264 41.7476C14.6264 43.1106 15.7127 44.2216 17.0455 44.2216C18.3782 44.2216 19.4645 43.1106 19.4645 41.7476C19.4645 40.3846 18.3782 39.2735 17.0455 39.2735ZM12.5321 33.0884C11.0986 33.0884 9.93387 34.2796 9.93387 35.7457C9.93387 37.2118 11.0986 38.403 12.5321 38.403C13.9656 38.403 15.1304 37.2118 15.1304 35.7457C15.1304 34.2796 13.9656 33.0884 12.5321 33.0884ZM12.5321 23.6275C13.9768 23.6275 15.1416 22.4363 15.1416 20.9588C15.1416 19.4812 13.9768 18.29 12.5321 18.29C11.0874 18.29 9.92267 19.4812 9.92267 20.9588C9.92267 22.4363 11.0986 23.6275 12.5321 23.6275ZM37.8427 15.0028C38.369 15.0028 38.7946 14.5675 38.7946 14.0292C38.7946 13.4908 38.369 13.0556 37.8427 13.0556C37.3163 13.0556 36.8907 13.4908 36.8907 14.0292C36.9019 14.579 37.3275 15.0028 37.8427 15.0028ZM17.0455 12.4715C15.7015 12.4715 14.6152 13.5825 14.6152 14.9569C14.6152 16.3314 15.7015 17.4424 17.0455 17.4424C18.3894 17.4424 19.4757 16.3314 19.4757 14.9569C19.4757 13.5825 18.3894 12.4715 17.0455 12.4715ZM23.6083 43.1106C22.4547 43.1106 21.514 44.0727 21.514 45.2525C21.514 46.4322 22.4547 47.3943 23.6083 47.3943C24.7618 47.3943 25.7026 46.4322 25.7026 45.2525C25.7026 44.0727 24.7618 43.1106 23.6083 43.1106ZM37.8427 41.7132C37.3163 41.7132 36.9019 42.1485 36.9019 42.6753C36.9019 43.2137 37.3275 43.6375 37.8427 43.6375C38.369 43.6375 38.7834 43.2022 38.7834 42.6753C38.7834 42.1485 38.3578 41.7132 37.8427 41.7132ZM31.0111 9.48199C30.1151 9.48199 29.3871 10.2265 29.3871 11.1428C29.3871 12.0591 30.1151 12.8036 31.0111 12.8036C31.907 12.8036 32.635 12.0591 32.635 11.1428C32.635 10.215 31.907 9.48199 31.0111 9.48199ZM30.9999 43.9353C30.1039 43.9353 29.3871 44.6798 29.3871 45.5846C29.3871 46.5009 30.1151 47.234 30.9999 47.234C31.8958 47.234 32.6126 46.4895 32.6126 45.5846C32.6126 44.6683 31.8958 43.9353 30.9999 43.9353ZM23.6083 9.31018C22.4435 9.31018 21.5028 10.2723 21.5028 11.4635C21.5028 12.6547 22.4435 13.6168 23.6083 13.6168C24.773 13.6168 25.7138 12.6547 25.7138 11.4635C25.7138 10.2723 24.773 9.31018 23.6083 9.31018Z" fill="#135334"/>
</svg>
