<svg width="24" height="18" viewBox="0 0 24 18" fill="none" xmlns="http://www.w3.org/2000/svg">
<path fill-rule="evenodd" clip-rule="evenodd" d="M1.75 0C1.28587 0 0.840752 0.184375 0.512563 0.512563C0.184374 0.840752 0 1.28587 0 1.75L0 15.75C0 16.716 0.784 17.5 1.75 17.5H22.25C22.7141 17.5 23.1592 17.3156 23.4874 16.9874C23.8156 16.6592 24 16.2141 24 15.75V1.75C24 1.28587 23.8156 0.840752 23.4874 0.512563C23.1592 0.184375 22.7141 0 22.25 0H1.75ZM1.5 1.75C1.5 1.6837 1.52634 1.62011 1.57322 1.57322C1.62011 1.52634 1.6837 1.5 1.75 1.5H22.25C22.3163 1.5 22.3799 1.52634 22.4268 1.57322C22.4737 1.62011 22.5 1.6837 22.5 1.75V2.602L12.14 9.602C12.0987 9.62994 12.0499 9.64488 12 9.64488C11.9501 9.64488 11.9013 9.62994 11.86 9.602L1.5 2.602V1.75ZM1.5 4.412V15.75C1.5 15.888 1.612 16 1.75 16H22.25C22.3163 16 22.3799 15.9737 22.4268 15.9268C22.4737 15.8799 22.5 15.8163 22.5 15.75V4.412L12.98 10.845C12.388 11.245 11.612 11.245 11.02 10.845L1.5 4.412Z" fill="#AA7530"/>
</svg>
