<svg width="24" height="24" viewBox="0 0 24 24" fill="none" xmlns="http://www.w3.org/2000/svg">
<path d="M8.05202 5.837C9.29493 5.28472 10.6399 4.99957 12 5C14.955 5 17.309 6.315 19.06 7.864C20.816 9.417 21.926 11.171 22.367 11.944C22.3771 11.9606 22.3826 11.9796 22.383 11.999C22.3827 12.0201 22.3768 12.0408 22.366 12.059C21.9164 12.8382 21.4047 13.5799 20.836 14.277C20.77 14.3529 20.7199 14.4413 20.6887 14.5369C20.6575 14.6326 20.6458 14.7335 20.6545 14.8337C20.6631 14.934 20.6918 15.0314 20.7389 15.1203C20.7859 15.2093 20.8504 15.2878 20.9284 15.3513C21.0065 15.4148 21.0965 15.4619 21.1931 15.4899C21.2898 15.5178 21.391 15.5261 21.4909 15.5141C21.5908 15.5022 21.6873 15.4702 21.7746 15.4202C21.8619 15.3702 21.9382 15.3031 21.999 15.223C22.6199 14.4626 23.1783 13.6533 23.669 12.803C23.8093 12.5594 23.8832 12.2832 23.8834 12.0021C23.8836 11.721 23.81 11.4448 23.67 11.201C23.185 10.351 21.98 8.444 20.054 6.741C18.124 5.034 15.432 3.5 12 3.5C10.305 3.5 8.78502 3.874 7.44802 4.463C7.26694 4.54373 7.12518 4.69289 7.05376 4.87785C6.98235 5.06281 6.98707 5.26853 7.06691 5.45001C7.14675 5.6315 7.2952 5.77398 7.4798 5.84632C7.66441 5.91865 7.87015 5.91494 8.05202 5.836V5.837Z" fill="#135334"/>
<path fill-rule="evenodd" clip-rule="evenodd" d="M19.166 17.987C17.328 19.38 14.933 20.5 12 20.5C8.568 20.5 5.875 18.966 3.946 17.26C2.02 15.556 0.814001 13.648 0.330001 12.798C0.190309 12.5545 0.11689 12.2786 0.117066 11.9979C0.117241 11.7172 0.191004 11.4414 0.331001 11.198C1.22591 9.64733 2.34347 8.2363 3.648 7.01003L1.317 5.36203C1.23348 5.30648 1.16195 5.23473 1.10664 5.15105C1.05134 5.06736 1.01339 4.97343 0.995028 4.87481C0.976669 4.7762 0.97828 4.6749 0.999764 4.57692C1.02125 4.47893 1.06217 4.38626 1.12011 4.30437C1.17804 4.22248 1.25182 4.15305 1.33706 4.10018C1.42231 4.04731 1.5173 4.01208 1.6164 3.99657C1.7155 3.98106 1.81671 3.98559 1.91403 4.00989C2.01136 4.03418 2.10282 4.07776 2.183 4.13803L22.683 18.638C22.7665 18.6936 22.8381 18.7653 22.8934 18.849C22.9487 18.9327 22.9866 19.0266 23.005 19.1252C23.0233 19.2239 23.0217 19.3252 23.0002 19.4231C22.9788 19.5211 22.9378 19.6138 22.8799 19.6957C22.822 19.7776 22.7482 19.847 22.6629 19.8999C22.5777 19.9528 22.4827 19.988 22.3836 20.0035C22.2845 20.019 22.1833 20.0145 22.086 19.9902C21.9886 19.9659 21.8972 19.9223 21.817 19.862L19.166 17.987ZM4.902 7.89803C3.172 9.43903 2.074 11.171 1.634 11.942C1.62323 11.9599 1.61736 11.9802 1.617 12.001C1.617 12.016 1.62 12.035 1.633 12.056C2.074 12.83 3.184 14.583 4.94 16.136C6.69 17.685 9.045 19 12 19C14.334 19 16.29 18.18 17.874 17.073L14.358 14.586C13.7684 15.1243 13.0124 15.4449 12.2156 15.4944C11.4187 15.544 10.6289 15.3197 9.97706 14.8586C9.32525 14.3976 8.85065 13.7276 8.63201 12.9597C8.41336 12.1918 8.46382 11.3723 8.775 10.637L4.902 7.89903V7.89803Z" fill="#135334"/>
</svg>
