<svg width="22" height="22" viewBox="0 0 22 22" fill="none" xmlns="http://www.w3.org/2000/svg">
<path fill-rule="evenodd" clip-rule="evenodd" d="M16.263 1.17698C16.5911 0.849061 17.0361 0.664856 17.5 0.664856C17.9639 0.664856 18.4088 0.849061 18.737 1.17698L21.323 3.76298C21.6509 4.09114 21.8351 4.53607 21.8351 4.99998C21.8351 5.4639 21.6509 5.90883 21.323 6.23698L18.53 9.02998L18.518 9.04298L7.68997 19.378C7.49215 19.5671 7.25274 19.7072 6.99097 19.787L1.46797 21.467C1.33807 21.5063 1.19994 21.5096 1.06831 21.4765C0.936686 21.4435 0.816486 21.3754 0.720524 21.2794C0.624563 21.1835 0.556437 21.0633 0.523407 20.9316C0.490378 20.8 0.493682 20.6619 0.532967 20.532L2.20597 15.032C2.29371 14.7441 2.45421 14.4837 2.67197 14.276L13.476 3.96298L16.263 1.17698ZM13.988 5.54798L3.70797 15.361C3.6767 15.3906 3.65362 15.4278 3.64097 15.469L2.37697 19.623L6.55397 18.352C6.59147 18.3404 6.62573 18.3202 6.65397 18.293L16.927 8.48698L13.987 5.54798H13.988ZM18 7.43998L20.263 5.17798C20.2862 5.15476 20.3047 5.12717 20.3173 5.0968C20.3299 5.06643 20.3364 5.03387 20.3364 5.00098C20.3364 4.9681 20.3299 4.93554 20.3173 4.90517C20.3047 4.87479 20.2862 4.84721 20.263 4.82398L17.677 2.23798C17.6537 2.2147 17.6262 2.19623 17.5958 2.18363C17.5654 2.17102 17.5329 2.16454 17.5 2.16454C17.4671 2.16454 17.4345 2.17102 17.4042 2.18363C17.3738 2.19623 17.3462 2.2147 17.323 2.23798L15.061 4.49998L18 7.43998Z" fill="#135334"/>
</svg>
