<svg width="20" height="22" viewBox="0 0 20 22"  xmlns="http://www.w3.org/2000/svg">
<path fill-rule="evenodd" clip-rule="evenodd" d="M10 0.25C7.513 0.25 5.226 0.652 3.534 1.329C2.69 1.666 1.957 2.087 1.422 2.593C0.886 3.1 0.5 3.744 0.5 4.5V17.487L0.526 17.5H0.5C0.5 18.256 0.886 18.9 1.422 19.407C1.957 19.913 2.69 20.334 3.534 20.671C5.226 21.348 7.513 21.75 10 21.75C12.487 21.75 14.773 21.348 16.466 20.671C17.31 20.334 18.043 19.913 18.578 19.407C19.114 18.9 19.5 18.256 19.5 17.5H19.474L19.5 17.487V4.5C19.5 3.744 19.114 3.1 18.578 2.593C18.043 2.087 17.31 1.666 16.466 1.329C14.773 0.652 12.487 0.25 10 0.25ZM2 4.5C2 4.29 2.104 4.013 2.453 3.683C2.803 3.351 3.352 3.017 4.091 2.721C5.566 2.131 7.655 1.75 10 1.75C12.345 1.75 14.434 2.132 15.909 2.721C16.649 3.017 17.196 3.351 17.547 3.683C17.897 4.013 18 4.289 18 4.5C18 4.71 17.896 4.987 17.547 5.317C17.197 5.649 16.648 5.983 15.909 6.279C14.434 6.869 12.345 7.25 10 7.25C7.655 7.25 5.566 6.868 4.091 6.279C3.351 5.983 2.804 5.649 2.453 5.317C2.103 4.987 2 4.711 2 4.5ZM18 11V6.871C17.5197 7.19343 17.0053 7.46173 16.466 7.671C14.773 8.348 12.487 8.75 10 8.75C7.513 8.75 5.226 8.348 3.534 7.671C2.99473 7.46172 2.48027 7.19342 2 6.871V11C2 11.21 2.104 11.487 2.453 11.817C2.803 12.149 3.352 12.483 4.091 12.778C5.566 13.368 7.655 13.75 10 13.75C12.345 13.75 14.434 13.368 15.909 12.778C16.649 12.483 17.196 12.149 17.547 11.818C17.897 11.488 18 11.211 18 11ZM2 13.371C2.443 13.676 2.963 13.943 3.534 14.171C5.226 14.848 7.513 15.25 10 15.25C12.487 15.25 14.773 14.848 16.466 14.171C17.0053 13.9617 17.5197 13.6934 18 13.371V17.487L18.013 17.5H18C18 17.71 17.896 17.987 17.547 18.317C17.197 18.649 16.648 18.983 15.909 19.279C14.434 19.869 12.345 20.25 10 20.25C7.655 20.25 5.566 19.868 4.091 19.279C3.351 18.983 2.804 18.649 2.453 18.317C2.103 17.987 2 17.711 2 17.5H1.987L2 17.487V13.37V13.371Z"/>
</svg>
