<svg width="24" height="24" viewBox="0 0 24 24" fill="none" xmlns="http://www.w3.org/2000/svg">
<path fill-rule="evenodd" clip-rule="evenodd" d="M16 12C16 13.0609 15.5786 14.0783 14.8284 14.8284C14.0783 15.5786 13.0609 16 12 16C10.9391 16 9.92172 15.5786 9.17157 14.8284C8.42143 14.0783 8 13.0609 8 12C8 10.9391 8.42143 9.92172 9.17157 9.17157C9.92172 8.42143 10.9391 8 12 8C13.0609 8 14.0783 8.42143 14.8284 9.17157C15.5786 9.92172 16 10.9391 16 12ZM14.5 12C14.5 12.663 14.2366 13.2989 13.7678 13.7678C13.2989 14.2366 12.663 14.5 12 14.5C11.337 14.5 10.7011 14.2366 10.2322 13.7678C9.76339 13.2989 9.5 12.663 9.5 12C9.5 11.337 9.76339 10.7011 10.2322 10.2322C10.7011 9.76339 11.337 9.5 12 9.5C12.663 9.5 13.2989 9.76339 13.7678 10.2322C14.2366 10.7011 14.5 11.337 14.5 12Z" fill="#135334"/>
<path fill-rule="evenodd" clip-rule="evenodd" d="M12 1C11.732 1 11.466 1.01 11.203 1.028C10.44 1.083 9.858 1.645 9.691 2.332L9.339 3.782C9.319 3.86 9.24901 3.954 9.11401 4.002C8.86676 4.09162 8.62382 4.19273 8.386 4.305C8.256 4.365 8.14 4.349 8.071 4.307L6.797 3.531C6.193 3.163 5.385 3.177 4.80701 3.678C4.40401 4.026 4.027 4.404 3.678 4.806C3.178 5.385 3.163 6.193 3.531 6.796L4.30701 8.071C4.34901 8.14 4.366 8.256 4.305 8.386C4.193 8.623 4.092 8.866 4.003 9.114C3.953 9.249 3.86001 9.32 3.78201 9.339L2.33201 9.691C1.64501 9.858 1.083 10.44 1.028 11.203C0.989973 11.7337 0.989973 12.2663 1.028 12.797C1.083 13.56 1.64501 14.142 2.33201 14.309L3.78201 14.661C3.86001 14.681 3.954 14.751 4.002 14.886C4.092 15.134 4.193 15.377 4.305 15.615C4.365 15.744 4.34901 15.86 4.30701 15.929L3.531 17.203C3.163 17.807 3.17701 18.615 3.678 19.193C4.02601 19.596 4.40401 19.973 4.80601 20.322C5.385 20.822 6.193 20.837 6.796 20.469L8.071 19.693C8.14 19.651 8.256 19.634 8.386 19.695C8.623 19.807 8.866 19.908 9.11401 19.997C9.24901 20.047 9.32 20.14 9.339 20.218L9.691 21.668C9.858 22.355 10.44 22.917 11.203 22.971C11.7337 23.0091 12.2664 23.0091 12.797 22.971C13.56 22.917 14.142 22.355 14.309 21.668L14.661 20.218C14.681 20.14 14.751 20.046 14.886 19.998C15.134 19.908 15.377 19.807 15.615 19.695C15.744 19.635 15.86 19.651 15.929 19.693L17.203 20.469C17.807 20.837 18.615 20.823 19.193 20.322C19.596 19.974 19.973 19.596 20.322 19.194C20.822 18.615 20.837 17.807 20.469 17.204L19.693 15.929C19.651 15.86 19.634 15.744 19.695 15.614C19.807 15.377 19.908 15.134 19.997 14.886C20.047 14.751 20.14 14.68 20.218 14.661L21.668 14.309C22.355 14.142 22.917 13.56 22.971 12.797C23.0091 12.2664 23.0091 11.7337 22.971 11.203C22.917 10.44 22.355 9.858 21.668 9.691L20.218 9.339C20.14 9.319 20.046 9.249 19.998 9.114C19.9084 8.86676 19.8073 8.62383 19.695 8.386C19.635 8.256 19.651 8.14 19.693 8.071L20.469 6.797C20.837 6.193 20.823 5.385 20.322 4.807C19.974 4.404 19.596 4.027 19.194 3.678C18.615 3.178 17.807 3.163 17.204 3.531L15.929 4.307C15.86 4.349 15.744 4.366 15.614 4.305C15.3762 4.19309 15.1332 4.09231 14.886 4.003C14.751 3.953 14.68 3.86 14.661 3.782L14.309 2.332C14.142 1.645 13.56 1.083 12.797 1.028C12.5318 1.00917 12.2659 0.999828 12 1ZM11.31 2.525C11.7694 2.49206 12.2306 2.49206 12.69 2.525C12.745 2.529 12.825 2.575 12.852 2.685L13.203 4.135C13.356 4.763 13.829 5.215 14.376 5.413C14.581 5.487 14.781 5.57 14.976 5.662C15.2485 5.7938 15.5494 5.85602 15.8518 5.8431C16.1542 5.83019 16.4487 5.74254 16.709 5.588L17.984 4.812C18.081 4.752 18.17 4.776 18.212 4.812C18.56 5.114 18.886 5.44 19.188 5.788C19.224 5.83 19.248 5.918 19.188 6.016L18.412 7.29C18.2573 7.55039 18.1696 7.84508 18.1566 8.14768C18.1437 8.45029 18.206 8.75138 18.338 9.024C18.43 9.219 18.513 9.419 18.586 9.624C18.784 10.171 19.238 10.644 19.864 10.796L21.314 11.149C21.425 11.175 21.471 11.255 21.475 11.31C21.5079 11.7694 21.5079 12.2306 21.475 12.69C21.471 12.745 21.425 12.825 21.315 12.852L19.865 13.203C19.5717 13.2778 19.3015 13.4241 19.0785 13.6288C18.8555 13.8334 18.6866 14.0902 18.587 14.376C18.5131 14.5798 18.4297 14.78 18.337 14.976C18.2054 15.2486 18.1433 15.5495 18.1564 15.8519C18.1695 16.1544 18.2573 16.4488 18.412 16.709L19.188 17.984C19.248 18.081 19.224 18.17 19.188 18.212C18.8866 18.5604 18.5604 18.8866 18.212 19.188C18.17 19.224 18.082 19.248 17.984 19.188L16.709 18.412C16.4487 18.2575 16.1542 18.1698 15.8518 18.1569C15.5494 18.144 15.2485 18.2062 14.976 18.338C14.78 18.43 14.5798 18.5128 14.376 18.586C14.0903 18.6857 13.8338 18.8547 13.6293 19.0776C13.4248 19.3006 13.2787 19.5708 13.204 19.864L12.851 21.314C12.825 21.425 12.745 21.471 12.69 21.475C12.2306 21.5079 11.7694 21.5079 11.31 21.475C11.255 21.471 11.175 21.425 11.148 21.315L10.797 19.865C10.7222 19.5717 10.5759 19.3015 10.3713 19.0785C10.1666 18.8555 9.90985 18.6866 9.624 18.587C9.4202 18.5131 9.21998 18.4297 9.024 18.337C8.7513 18.2052 8.45017 18.143 8.14756 18.1561C7.84495 18.1692 7.55031 18.2571 7.29 18.412L6.016 19.188C5.919 19.248 5.83 19.224 5.788 19.188C5.43958 18.8866 5.1134 18.5604 4.812 18.212C4.776 18.17 4.752 18.082 4.812 17.984L5.588 16.709C5.74255 16.4487 5.83019 16.1542 5.8431 15.8518C5.85602 15.5494 5.7938 15.2485 5.662 14.976C5.5697 14.78 5.4866 14.5798 5.413 14.376C5.31335 14.0905 5.1446 13.834 4.92179 13.6295C4.69897 13.425 4.42903 13.2788 4.13601 13.204L2.68601 12.851C2.57501 12.825 2.52901 12.745 2.52501 12.69C2.49206 12.2306 2.49206 11.7694 2.52501 11.31C2.52901 11.255 2.575 11.175 2.685 11.148L4.13501 10.797C4.42832 10.7222 4.69854 10.5759 4.92155 10.3713C5.14456 10.1666 5.3134 9.90984 5.413 9.624C5.48661 9.42023 5.5697 9.22001 5.662 9.024C5.79397 8.75138 5.85629 8.45029 5.84337 8.14768C5.83046 7.84508 5.74272 7.55039 5.588 7.29L4.812 6.016C4.752 5.919 4.776 5.83 4.812 5.788C5.114 5.44 5.44 5.114 5.788 4.812C5.83 4.776 5.918 4.752 6.016 4.812L7.29 5.588C7.55039 5.74272 7.84508 5.83046 8.14769 5.84337C8.45029 5.85628 8.75138 5.79397 9.024 5.662C9.22001 5.5697 9.42023 5.48661 9.624 5.413C9.90954 5.31335 10.166 5.1446 10.3705 4.92178C10.575 4.69897 10.7212 4.42902 10.796 4.136L11.149 2.686C11.175 2.575 11.255 2.529 11.31 2.525Z" fill="#135334"/>
</svg>
