<svg width="24" height="24" viewBox="0 0 24 24" fill="none" xmlns="http://www.w3.org/2000/svg">
<path fill-rule="evenodd" clip-rule="evenodd" d="M19.9996 5.49994C19.9997 6.20291 19.7881 6.88961 19.3924 7.47061C18.9967 8.05162 18.4352 8.5 17.781 8.75737C17.1269 9.01473 16.4104 9.06916 15.7248 8.91355C15.0393 8.75794 14.4165 8.39951 13.9376 7.88494L8.8256 10.9059C9.05963 11.6165 9.05963 12.3834 8.8256 13.0939L13.9376 16.1149C14.5262 15.4838 15.3272 15.0924 16.1868 15.0159C17.0463 14.9393 17.9039 15.1831 18.5947 15.7003C19.2856 16.2174 19.761 16.9716 19.9297 17.818C20.0984 18.6643 19.9484 19.5431 19.5087 20.2856C19.0689 21.0282 18.3703 21.582 17.5471 21.8409C16.7238 22.0998 15.834 22.0454 15.0484 21.6882C14.2628 21.3309 13.6369 20.6961 13.2909 19.9055C12.9448 19.115 12.9031 18.2244 13.1736 17.4049L8.0616 14.3849C7.58264 14.8994 6.95989 15.2577 6.27443 15.4132C5.58898 15.5687 4.87258 15.5143 4.21851 15.2569C3.56445 14.9996 3.00301 14.5512 2.60732 13.9703C2.21162 13.3894 2 12.7028 2 11.9999C2 11.2971 2.21162 10.6105 2.60732 10.0296C3.00301 9.44865 3.56445 9.00033 4.21851 8.74298C4.87258 8.48563 5.58898 8.43117 6.27443 8.5867C6.95989 8.74222 7.58264 9.10052 8.0616 9.61494L13.1736 6.59394V6.59494C13.016 6.11402 12.9646 5.60465 13.0229 5.10194C13.0812 4.59923 13.2478 4.11514 13.5113 3.68305C13.7747 3.25095 14.1288 2.88113 14.549 2.59909C14.9692 2.31704 15.4455 2.12947 15.9452 2.04931C16.4449 1.96915 16.9561 1.99831 17.4434 2.13478C17.9307 2.27124 18.3827 2.51177 18.7681 2.83978C19.1535 3.16778 19.4631 3.57546 19.6757 4.03471C19.8884 4.49397 19.9988 4.99386 19.9996 5.49994V5.49994ZM18.4996 5.49994C18.4996 6.03038 18.2889 6.53908 17.9138 6.91416C17.5387 7.28923 17.03 7.49994 16.4996 7.49994C15.9692 7.49994 15.4605 7.28923 15.0854 6.91416C14.7103 6.53908 14.4996 6.03038 14.4996 5.49994C14.4996 4.96951 14.7103 4.4608 15.0854 4.08573C15.4605 3.71066 15.9692 3.49994 16.4996 3.49994C17.03 3.49994 17.5387 3.71066 17.9138 4.08573C18.2889 4.4608 18.4996 4.96951 18.4996 5.49994V5.49994ZM5.4996 13.9999C6.03003 13.9999 6.53874 13.7892 6.91381 13.4142C7.28888 13.0391 7.4996 12.5304 7.4996 11.9999C7.4996 11.4695 7.28888 10.9608 6.91381 10.5857C6.53874 10.2107 6.03003 9.99994 5.4996 9.99994C4.96916 9.99994 4.46046 10.2107 4.08538 10.5857C3.71031 10.9608 3.4996 11.4695 3.4996 11.9999C3.4996 12.5304 3.71031 13.0391 4.08538 13.4142C4.46046 13.7892 4.96916 13.9999 5.4996 13.9999V13.9999ZM18.4996 18.4999C18.4996 19.0304 18.2889 19.5391 17.9138 19.9142C17.5387 20.2892 17.03 20.4999 16.4996 20.4999C15.9692 20.4999 15.4605 20.2892 15.0854 19.9142C14.7103 19.5391 14.4996 19.0304 14.4996 18.4999C14.4996 17.9695 14.7103 17.4608 15.0854 17.0857C15.4605 16.7107 15.9692 16.4999 16.4996 16.4999C17.03 16.4999 17.5387 16.7107 17.9138 17.0857C18.2889 17.4608 18.4996 17.9695 18.4996 18.4999V18.4999Z" fill="white"/>
</svg>
