<svg width="31" height="31" viewBox="0 0 31 31" fill="none" xmlns="http://www.w3.org/2000/svg">
<path fill-rule="evenodd" clip-rule="evenodd" d="M15.5001 3.22917C12.2457 3.22917 9.12452 4.52199 6.82329 6.82322C4.52206 9.12444 3.22925 12.2456 3.22925 15.5C3.22925 18.7544 4.52206 21.8756 6.82329 24.1768C9.12452 26.478 12.2457 27.7708 15.5001 27.7708C18.7545 27.7708 21.8756 26.478 24.1769 24.1768C26.4781 21.8756 27.7709 18.7544 27.7709 15.5C27.7709 12.2456 26.4781 9.12444 24.1769 6.82322C21.8756 4.52199 18.7545 3.22917 15.5001 3.22917V3.22917ZM1.29175 15.5C1.29175 7.65313 7.65321 1.29167 15.5001 1.29167C23.347 1.29167 29.7084 7.65313 29.7084 15.5C29.7084 23.3469 23.347 29.7083 15.5001 29.7083C7.65321 29.7083 1.29175 23.3469 1.29175 15.5Z" fill="black"/>
</svg>
