<svg width="39" height="39" viewBox="0 0 39 39" fill="none" xmlns="http://www.w3.org/2000/svg">
<path d="M8.125 4.06253C7.90951 4.06253 7.70285 4.14813 7.55048 4.30051C7.3981 4.45288 7.3125 4.65954 7.3125 4.87503V34.125C7.3125 34.3405 7.3981 34.5472 7.55048 34.6996C7.70285 34.8519 7.90951 34.9375 8.125 34.9375H10.9688C11.292 34.9375 11.602 35.0659 11.8305 35.2945C12.0591 35.5231 12.1875 35.833 12.1875 36.1563C12.1875 36.4795 12.0591 36.7895 11.8305 37.0181C11.602 37.2466 11.292 37.375 10.9688 37.375H8.125C7.26305 37.375 6.4364 37.0326 5.8269 36.4231C5.21741 35.8136 4.875 34.987 4.875 34.125V4.87503C4.875 4.01308 5.21741 3.18643 5.8269 2.57693C6.4364 1.96744 7.26305 1.62503 8.125 1.62503H24.3458C25.2076 1.62521 26.0341 1.96775 26.6435 2.57728L33.1727 9.10653C33.7823 9.71588 34.1248 10.5424 34.125 11.4043V34.125C34.125 34.987 33.7826 35.8136 33.1731 36.4231C32.5636 37.0326 31.737 37.375 30.875 37.375H26.4062C26.083 37.375 25.773 37.2466 25.5445 37.0181C25.3159 36.7895 25.1875 36.4795 25.1875 36.1563C25.1875 35.833 25.3159 35.5231 25.5445 35.2945C25.773 35.0659 26.083 34.9375 26.4062 34.9375H30.875C31.0905 34.9375 31.2972 34.8519 31.4495 34.6996C31.6019 34.5472 31.6875 34.3405 31.6875 34.125V11.4043C31.6877 11.2975 31.6668 11.1917 31.6261 11.093C31.5854 10.9943 31.5257 10.9046 31.4503 10.829L24.921 4.29978C24.8454 4.22438 24.7557 4.16461 24.657 4.1239C24.5583 4.0832 24.4525 4.06234 24.3458 4.06253H8.125Z" fill="#135334"/>
<path d="M18.6875 25.5938C18.6875 25.2705 18.8159 24.9606 19.0445 24.732C19.273 24.5034 19.583 24.375 19.9062 24.375H21.5312C21.8545 24.375 22.1645 24.5034 22.393 24.732C22.6216 24.9606 22.75 25.2705 22.75 25.5938C22.75 25.917 22.6216 26.227 22.393 26.4556C22.1645 26.6841 21.8545 26.8125 21.5312 26.8125H19.9062C19.583 26.8125 19.273 26.6841 19.0445 26.4556C18.8159 26.227 18.6875 25.917 18.6875 25.5938V25.5938ZM19.9062 19.5C19.583 19.5 19.273 19.6284 19.0445 19.857C18.8159 20.0856 18.6875 20.3955 18.6875 20.7188C18.6875 21.042 18.8159 21.352 19.0445 21.5806C19.273 21.8091 19.583 21.9375 19.9062 21.9375H21.5312C21.8545 21.9375 22.1645 21.8091 22.393 21.5806C22.6216 21.352 22.75 21.042 22.75 20.7188C22.75 20.3955 22.6216 20.0856 22.393 19.857C22.1645 19.6284 21.8545 19.5 21.5312 19.5H19.9062ZM18.6875 15.8438C18.6875 15.5205 18.8159 15.2106 19.0445 14.982C19.273 14.7534 19.583 14.625 19.9062 14.625H21.5312C21.8545 14.625 22.1645 14.7534 22.393 14.982C22.6216 15.2106 22.75 15.5205 22.75 15.8438C22.75 16.167 22.6216 16.477 22.393 16.7056C22.1645 16.9341 21.8545 17.0625 21.5312 17.0625H19.9062C19.583 17.0625 19.273 16.9341 19.0445 16.7056C18.8159 16.477 18.6875 16.167 18.6875 15.8438ZM19.9062 9.75003C19.583 9.75003 19.273 9.87843 19.0445 10.107C18.8159 10.3356 18.6875 10.6455 18.6875 10.9688C18.6875 11.292 18.8159 11.602 19.0445 11.8306C19.273 12.0591 19.583 12.1875 19.9062 12.1875H21.5312C21.8545 12.1875 22.1645 12.0591 22.393 11.8306C22.6216 11.602 22.75 11.292 22.75 10.9688C22.75 10.6455 22.6216 10.3356 22.393 10.107C22.1645 9.87843 21.8545 9.75003 21.5312 9.75003H19.9062ZM18.6875 6.09378C18.6875 5.77055 18.8159 5.46055 19.0445 5.23199C19.273 5.00343 19.583 4.87503 19.9062 4.87503H21.5312C21.8545 4.87503 22.1645 5.00343 22.393 5.23199C22.6216 5.46055 22.75 5.77055 22.75 6.09378C22.75 6.41701 22.6216 6.72701 22.393 6.95557C22.1645 7.18413 21.8545 7.31253 21.5312 7.31253H19.9062C19.583 7.31253 19.273 7.18413 19.0445 6.95557C18.8159 6.72701 18.6875 6.41701 18.6875 6.09378V6.09378ZM15.8438 21.9375C15.5205 21.9375 15.2105 22.0659 14.982 22.2945C14.7534 22.5231 14.625 22.833 14.625 23.1563C14.625 23.4795 14.7534 23.7895 14.982 24.0181C15.2105 24.2466 15.5205 24.375 15.8438 24.375H17.4688C17.792 24.375 18.102 24.2466 18.3305 24.0181C18.5591 23.7895 18.6875 23.4795 18.6875 23.1563C18.6875 22.833 18.5591 22.5231 18.3305 22.2945C18.102 22.0659 17.792 21.9375 17.4688 21.9375H15.8438ZM14.625 18.2813C14.625 17.958 14.7534 17.6481 14.982 17.4195C15.2105 17.1909 15.5205 17.0625 15.8438 17.0625H17.4688C17.792 17.0625 18.102 17.1909 18.3305 17.4195C18.5591 17.6481 18.6875 17.958 18.6875 18.2813C18.6875 18.6045 18.5591 18.9145 18.3305 19.1431C18.102 19.3716 17.792 19.5 17.4688 19.5H15.8438C15.5205 19.5 15.2105 19.3716 14.982 19.1431C14.7534 18.9145 14.625 18.6045 14.625 18.2813ZM15.8438 12.1875C15.5205 12.1875 15.2105 12.3159 14.982 12.5445C14.7534 12.7731 14.625 13.083 14.625 13.4063C14.625 13.7295 14.7534 14.0395 14.982 14.2681C15.2105 14.4966 15.5205 14.625 15.8438 14.625H17.4688C17.792 14.625 18.102 14.4966 18.3305 14.2681C18.5591 14.0395 18.6875 13.7295 18.6875 13.4063C18.6875 13.083 18.5591 12.7731 18.3305 12.5445C18.102 12.3159 17.792 12.1875 17.4688 12.1875H15.8438ZM14.625 8.53128C14.625 8.20805 14.7534 7.89805 14.982 7.66949C15.2105 7.44093 15.5205 7.31253 15.8438 7.31253H17.4688C17.792 7.31253 18.102 7.44093 18.3305 7.66949C18.5591 7.89805 18.6875 8.20805 18.6875 8.53128C18.6875 8.85451 18.5591 9.16451 18.3305 9.39307C18.102 9.62163 17.792 9.75003 17.4688 9.75003H15.8438C15.5205 9.75003 15.2105 9.62163 14.982 9.39307C14.7534 9.16451 14.625 8.85451 14.625 8.53128Z" fill="#135334"/>
<path fill-rule="evenodd" clip-rule="evenodd" d="M17.875 27.625C17.013 27.625 16.1864 27.9674 15.5769 28.5769C14.9674 29.1864 14.625 30.0131 14.625 30.875V37.7813C14.625 38.454 15.171 39 15.8438 39H21.5312C21.8545 39 22.1645 38.8716 22.393 38.6431C22.6216 38.4145 22.75 38.1045 22.75 37.7813V30.875C22.75 30.0131 22.4076 29.1864 21.7981 28.5769C21.1886 27.9674 20.362 27.625 19.5 27.625H17.875ZM17.0625 30.875C17.0625 30.6595 17.1481 30.4529 17.3005 30.3005C17.4528 30.1481 17.6595 30.0625 17.875 30.0625H19.5C19.7155 30.0625 19.9222 30.1481 20.0745 30.3005C20.2269 30.4529 20.3125 30.6595 20.3125 30.875V36.5625H17.0625V30.875Z" fill="#135334"/>
</svg>
