<svg width="31" height="31" viewBox="0 0 31 31" fill="none" xmlns="http://www.w3.org/2000/svg">
<path fill-rule="evenodd" clip-rule="evenodd" d="M15.4999 3.22917C13.9808 3.22871 12.5015 3.71521 11.2792 4.61729C10.0569 5.51936 9.15596 6.78949 8.7086 8.24125C8.26123 9.69302 8.29102 11.25 8.79358 12.6835C9.29614 14.1171 10.245 15.3519 11.5009 16.2065C9.32122 17.006 7.43064 18.4395 6.0725 20.3225C4.71436 22.2054 3.95079 24.4518 3.88008 26.7724C3.87237 27.0293 3.96704 27.2788 4.14327 27.4659C4.31949 27.653 4.56283 27.7625 4.81976 27.7702C5.07669 27.7779 5.32616 27.6832 5.51328 27.507C5.70041 27.3308 5.80987 27.0874 5.81758 26.8305C5.89449 24.3136 6.94838 21.9256 8.75589 20.1725C10.5634 18.4194 12.9825 17.4389 15.5006 17.4389C18.0186 17.4389 20.4377 18.4194 22.2452 20.1725C24.0527 21.9256 25.1066 24.3136 25.1835 26.8305C25.1845 26.9595 25.2112 27.087 25.2622 27.2055C25.3131 27.324 25.3871 27.4312 25.48 27.5207C25.5729 27.6102 25.6827 27.6803 25.803 27.7268C25.9234 27.7732 26.0517 27.7953 26.1807 27.7915C26.3096 27.7877 26.4365 27.7582 26.5539 27.7047C26.6713 27.6512 26.7768 27.5749 26.8643 27.4801C26.9517 27.3852 27.0194 27.2739 27.0632 27.1526C27.1071 27.0313 27.1263 26.9025 27.1197 26.7737C27.0493 24.4528 26.2858 22.2062 24.9277 20.323C23.5695 18.4397 21.6788 17.0061 19.4989 16.2065C20.7548 15.3519 21.7037 14.1171 22.2062 12.6835C22.7088 11.25 22.7386 9.69302 22.2912 8.24125C21.8439 6.78949 20.9429 5.51936 19.7206 4.61729C18.4983 3.71521 17.019 3.22871 15.4999 3.22917V3.22917ZM10.3332 10.3333C10.3332 8.96305 10.8776 7.64889 11.8465 6.67995C12.8155 5.71102 14.1296 5.16667 15.4999 5.16667C16.8702 5.16667 18.1844 5.71102 19.1533 6.67995C20.1222 7.64889 20.6666 8.96305 20.6666 10.3333C20.6666 11.7036 20.1222 13.0178 19.1533 13.9867C18.1844 14.9557 16.8702 15.5 15.4999 15.5C14.1296 15.5 12.8155 14.9557 11.8465 13.9867C10.8776 13.0178 10.3332 11.7036 10.3332 10.3333V10.3333Z" fill="black"/>
</svg>
