<svg width="18" height="21" viewBox="0 0 18 21" fill="none" xmlns="http://www.w3.org/2000/svg">
<path fill-rule="evenodd" clip-rule="evenodd" d="M4.5 6.25C4.5 3.58 6.422 1.5 9 1.5C11.079 1.5 12.71 2.84 13.282 4.742C13.3085 4.83842 13.354 4.92856 13.4159 5.00712C13.4778 5.08569 13.5547 5.15109 13.6422 5.19947C13.7297 5.24786 13.826 5.27826 13.9255 5.28889C14.0249 5.29951 14.1255 5.29014 14.2212 5.26133C14.317 5.23253 14.406 5.18486 14.4831 5.12114C14.5601 5.05742 14.6237 4.97893 14.67 4.89029C14.7163 4.80166 14.7443 4.70466 14.7526 4.605C14.7608 4.50534 14.7491 4.40504 14.718 4.31C13.971 1.825 11.792 0 9 0C5.503 0 3 2.845 3 6.25V8H2.5C1.83696 8 1.20107 8.26339 0.732233 8.73223C0.263392 9.20107 0 9.83696 0 10.5V18.5C0 19.163 0.263392 19.7989 0.732233 20.2678C1.20107 20.7366 1.83696 21 2.5 21H15.5C16.163 21 16.7989 20.7366 17.2678 20.2678C17.7366 19.7989 18 19.163 18 18.5V10.5C18 9.83696 17.7366 9.20107 17.2678 8.73223C16.7989 8.26339 16.163 8 15.5 8H4.5V6.25ZM1.5 10.5C1.5 10.2348 1.60536 9.98043 1.79289 9.79289C1.98043 9.60536 2.23478 9.5 2.5 9.5H15.5C15.7652 9.5 16.0196 9.60536 16.2071 9.79289C16.3946 9.98043 16.5 10.2348 16.5 10.5V18.5C16.5 18.7652 16.3946 19.0196 16.2071 19.2071C16.0196 19.3946 15.7652 19.5 15.5 19.5H2.5C2.23478 19.5 1.98043 19.3946 1.79289 19.2071C1.60536 19.0196 1.5 18.7652 1.5 18.5V10.5Z" fill="#2A79F0"/>
</svg>
